<svg width="101" height="100" viewBox="0 0 101 100" fill="none" xmlns="http://www.w3.org/2000/svg">
<g clip-path="url(#clip0_33329_5513)">
<path d="M50.5 100C78.1142 100 100.5 77.6142 100.5 50C100.5 22.3858 78.1142 0 50.5 0C22.8858 0 0.5 22.3858 0.5 50C0.5 77.6142 22.8858 100 50.5 100Z" fill="#BDE6F2"/>
<mask id="mask0_33329_5513" style="mask-type:alpha" maskUnits="userSpaceOnUse" x="0" y="0" width="101" height="100">
<path d="M50.5 100C78.1142 100 100.5 77.6142 100.5 50C100.5 22.3858 78.1142 0 50.5 0C22.8858 0 0.5 22.3858 0.5 50C0.5 77.6142 22.8858 100 50.5 100Z" fill="#0085BC"/>
</mask>
<g mask="url(#mask0_33329_5513)">
<path d="M71.3335 143.75C98.9477 143.75 121.334 121.364 121.334 93.75C121.334 66.1358 98.9477 43.75 71.3335 43.75C43.7193 43.75 21.3335 66.1358 21.3335 93.75C21.3335 121.364 43.7193 143.75 71.3335 143.75Z" fill="url(#paint0_linear_33329_5513)"/>
</g>
</g>
<path d="M44.979 27.2519C45.1599 26.251 44.472 25.2965 43.4419 25.1199C42.4113 24.9427 41.4288 25.6122 41.2471 26.6136C41.1939 26.9062 40.2987 31.9761 40.825 37.4651L34.8049 20.4641C34.4644 19.5025 33.386 18.9909 32.3969 19.3221C31.4074 19.6531 30.8814 20.7009 31.2219 21.6626L36.571 36.7685C36.4555 36.566 36.3383 36.3627 36.2182 36.1581C32.7638 30.2692 29.2367 26.6217 25.7348 25.317C24.7583 24.9527 23.6623 25.4278 23.2875 26.3772C22.9129 27.3267 23.4012 28.3917 24.3784 28.7558C28.5679 30.3169 32.6896 37.1247 35.0935 42.0116L36.4989 45.4869L45.6747 42.5415L44.804 38.7637C43.9308 33.2229 44.966 27.3248 44.979 27.2519Z" fill="#38A169"/>
<path d="M76.8219 30.48H64.2454L59.9744 38.7699C59.8244 39.0615 59.7458 39.3852 59.7458 39.7139V61.2707C59.7458 62.3981 60.6486 63.3119 61.7621 63.3119H79.3049C80.4185 63.3119 81.3211 62.398 81.3211 61.2707V39.7139C81.3211 39.3852 81.2428 39.0615 81.0925 38.7699L76.8219 30.48Z" fill="white"/>
<path d="M81.0767 38.7699L76.5344 30.48H67.249L71.7914 38.7699C71.951 39.0614 72.0345 39.3852 72.0345 39.7139V61.2707C72.0345 62.3981 71.0744 63.3119 69.8901 63.3119H79.1755C80.3599 63.3119 81.3199 62.398 81.3199 61.2707V39.7139C81.3199 39.3852 81.2364 39.0613 81.0767 38.7699Z" fill="#C1C7CD"/>
<path d="M79.1314 32.3563H61.935C61.2439 32.3563 60.6836 31.8717 60.6836 31.274V29.6865C60.6836 29.0888 61.2439 28.6041 61.935 28.6041H79.1314C79.8225 28.6041 80.3828 29.0888 80.3828 29.6865V31.274C80.3826 31.8717 79.8225 32.3563 79.1314 32.3563Z" fill="#435A96"/>
<path d="M79.0732 28.6041H71.0015V32.3563H79.0732C79.796 32.3563 80.382 31.8717 80.382 31.274V29.6864C80.3819 29.0888 79.796 28.6041 79.0732 28.6041Z" fill="#142246"/>
<path d="M76.1204 56.7455H64.006C63.7248 56.7455 63.4968 56.5175 63.4968 56.2363V44.1218C63.4968 43.8407 63.7248 43.6127 64.006 43.6127H76.1204C76.4016 43.6127 76.6296 43.8407 76.6296 44.1218V56.2363C76.6296 56.5175 76.4016 56.7455 76.1204 56.7455Z" fill="#FFBB96"/>
<path d="M76.2021 43.6127H72.8774V56.7455H76.2021C76.4382 56.7455 76.6297 56.5175 76.6297 56.2363V44.1218C76.6297 43.8407 76.4382 43.6127 76.2021 43.6127Z" fill="#FF7A45"/>
<path d="M54.3518 22.6055V8.90613H47.3156V22.6057C47.3156 25.1141 46.3504 27.5271 44.6189 29.3474C42.8873 31.1678 41.9221 33.5806 41.9221 36.0891V75.858C41.9221 77.2189 43.0291 78.3223 44.3945 78.3223H57.2728C58.6382 78.3223 59.7452 77.2189 59.7452 75.858V36.0891C59.7452 33.5806 58.78 31.1676 57.0484 29.3474C55.317 27.5269 54.3518 25.1139 54.3518 22.6055Z" fill="#435A96"/>
<path d="M57.0812 29.3473C55.3706 27.5269 54.4171 25.1141 54.4171 22.6056V8.90613H47.466V22.6056C47.466 24.0021 47.1697 25.3685 46.6125 26.6201C47.0562 27.6167 47.6649 28.5404 48.4232 29.3475C50.1338 31.1679 51.0873 33.5807 51.0873 36.0891V75.858C51.0873 77.2189 49.9938 78.3223 48.6449 78.3223H57.3029C58.6518 78.3223 59.7453 77.2189 59.7453 75.858V36.089C59.7452 33.5806 58.7918 31.1676 57.0812 29.3473Z" fill="#142246"/>
<path d="M55.055 20.6652V8.40097C55.055 8.16108 54.8613 7.96667 54.6223 7.96667H47.0453C46.8063 7.96667 46.6125 8.16108 46.6125 8.40097V20.6652C46.6125 20.9051 46.8063 21.0995 47.0453 21.0995H54.6223C54.8613 21.0993 55.055 20.9049 55.055 20.6652Z" fill="white"/>
<path d="M59.7455 60.4981H48.8373C48.1267 60.4981 47.5508 59.9289 47.5508 59.2267V41.1322C47.5508 40.43 48.1267 39.8608 48.8373 39.8608H59.7455V60.4981Z" fill="white"/>
<path d="M59.7455 39.8608H50.365V60.4981H59.7455V39.8608Z" fill="#DDE1E6"/>
<path d="M19.4323 56.5159H44.2121C44.439 45.8736 36.6721 34.3322 26.5074 31.8574C24.349 31.3311 22.0728 31.616 20.1105 32.6594C15.2675 35.235 12.991 40.9277 14.7219 46.1314C15.7053 49.0916 17.4666 52.907 19.4323 56.5159Z" fill="#FFC069"/>
<path d="M26.5065 31.8574C24.348 31.3311 22.0718 31.616 20.1095 32.6594C15.2665 35.235 12.9901 40.9277 14.7209 46.1314C15.5728 48.6924 17.0063 51.8919 18.6475 55.045L36.1923 37.5002C33.4329 34.7723 30.1223 32.7376 26.5065 31.8574Z" fill="#FFD591"/>
<path d="M27.0084 31.9979C29.3981 32.6558 31.6494 33.8104 33.6878 35.337C29.8338 40.2446 23.6196 46.51 22.0837 44.9731C20.6931 43.5837 23.9868 37.0837 27.0084 31.9979Z" fill="#FFA940"/>
<path d="M37.9443 39.416C39.6932 41.5267 41.1438 43.9279 42.2077 46.4706C38.3379 51.2535 32.6215 56.8802 31.156 55.4159C29.4664 53.726 34.6962 44.4903 37.9443 39.416Z" fill="#FFA940"/>
<g clip-path="url(#clip1_33329_5513)">
<path d="M74.306 86.5381H26.6956C24.4371 86.5381 22.482 84.9681 21.9945 82.7628L14.9238 50.7834H86.0778L79.0072 82.7628C78.5196 84.9681 76.5646 86.5381 74.306 86.5381Z" fill="url(#paint1_linear_33329_5513)"/>
<path d="M76.8807 50.7834L69.8102 82.7628C69.3227 84.9681 67.3676 86.5381 65.1091 86.5381H74.3053C76.5639 86.5381 78.5189 84.9681 79.0064 82.7628L86.0769 50.7834H76.8807Z" fill="url(#paint2_linear_33329_5513)"/>
<path d="M88.8399 56.0799H12.1592C11.3588 56.0799 10.71 55.4311 10.71 54.6307V51.0298C10.71 50.2294 11.3588 49.5806 12.1592 49.5806H88.8397C89.6401 49.5806 90.2889 50.2294 90.2889 51.0298V54.6307C90.2891 55.4311 89.6403 56.0799 88.8399 56.0799Z" fill="#FFF2E8"/>
<path d="M88.8399 49.5806H81.0647V56.0801H88.8399C89.6403 56.0801 90.2891 55.4313 90.2891 54.6309V51.0299C90.2891 50.2294 89.6403 49.5806 88.8399 49.5806Z" fill="#FFD8BF"/>
<path d="M43.5108 78.7369C43.558 79.4102 44.1188 79.9246 44.7835 79.9246C44.8135 79.9246 44.8438 79.9236 44.8742 79.9215C45.5779 79.8721 46.1082 79.2616 46.0588 78.5579L44.9684 63.029C44.919 62.3253 44.3082 61.794 43.6048 61.8444C42.9011 61.8938 42.3708 62.5043 42.4202 63.208L43.5108 78.7369Z" fill="white"/>
<path d="M33.6541 80.1605C33.5654 80.1793 33.4768 80.1883 33.3896 80.1883C32.7984 80.1883 32.2677 79.7754 32.141 79.174L28.8697 63.6451C28.7243 62.955 29.1661 62.2774 29.8562 62.1321C30.5467 61.986 31.2238 62.4285 31.3692 63.1186L34.6404 78.6475C34.786 79.3376 34.3443 80.0151 33.6541 80.1605Z" fill="white"/>
<path d="M58.7632 78.7369C58.7159 79.4102 58.1551 79.9246 57.4905 79.9246C57.4604 79.9246 57.4301 79.9236 57.3997 79.9215C56.696 79.8721 56.1657 79.2616 56.2151 78.5579L57.3055 63.029C57.3549 62.3253 57.9658 61.794 58.6691 61.8444C59.3728 61.8938 59.9032 62.5043 59.8537 63.208L58.7632 78.7369Z" fill="white"/>
<path d="M68.621 80.1605C68.7098 80.1793 68.7984 80.1883 68.8856 80.1883C69.4768 80.1883 70.0074 79.7754 70.1342 79.174L73.4054 63.6451C73.5509 62.955 73.1091 62.2774 72.419 62.1321C71.7285 61.986 71.0514 62.4285 70.906 63.1186L67.6347 78.6475C67.489 79.3376 67.9307 80.0151 68.621 80.1605Z" fill="white"/>
</g>
<defs>
<linearGradient id="paint0_linear_33329_5513" x1="33.8335" y1="52.0833" x2="94.2502" y2="139.583" gradientUnits="userSpaceOnUse">
<stop stop-color="#FFD5DF"/>
<stop offset="0.0001" stop-color="#5FBFDD"/>
<stop offset="0.390625" stop-color="#3D89B5"/>
<stop offset="1" stop-color="#14528B"/>
</linearGradient>
<linearGradient id="paint1_linear_33329_5513" x1="32.4028" y1="65.4033" x2="55.9599" y2="102.908" gradientUnits="userSpaceOnUse">
<stop stop-color="#FD773F"/>
<stop offset="1" stop-color="#FBA44A"/>
</linearGradient>
<linearGradient id="paint2_linear_33329_5513" x1="66.5787" y1="50.8561" x2="102.885" y2="61.439" gradientUnits="userSpaceOnUse">
<stop stop-color="#FD773F"/>
<stop offset="1" stop-color="#702100"/>
</linearGradient>
<clipPath id="clip0_33329_5513">
<rect x="0.5" width="100" height="100" rx="8" fill="white"/>
</clipPath>
<clipPath id="clip1_33329_5513">
<rect width="84.6154" height="84.6154" fill="white" transform="translate(8.19238 1.9231)"/>
</clipPath>
</defs>
</svg>
