<svg width="101" height="100" viewBox="0 0 101 100" fill="none" xmlns="http://www.w3.org/2000/svg">
<g clip-path="url(#clip0_33329_5459)">
<path opacity="0.5" d="M50.5 100C78.1142 100 100.5 77.6142 100.5 50C100.5 22.3858 78.1142 0 50.5 0C22.8858 0 0.5 22.3858 0.5 50C0.5 77.6142 22.8858 100 50.5 100Z" fill="#64C3DF"/>
<mask id="mask0_33329_5459" style="mask-type:alpha" maskUnits="userSpaceOnUse" x="0" y="0" width="101" height="100">
<path d="M50.5 100C78.1142 100 100.5 77.6142 100.5 50C100.5 22.3858 78.1142 0 50.5 0C22.8858 0 0.5 22.3858 0.5 50C0.5 77.6142 22.8858 100 50.5 100Z" fill="#0085BC"/>
</mask>
<g mask="url(#mask0_33329_5459)">
<path d="M71.3335 143.75C98.9477 143.75 121.334 121.364 121.334 93.75C121.334 66.1358 98.9477 43.75 71.3335 43.75C43.7193 43.75 21.3335 66.1358 21.3335 93.75C21.3335 121.364 43.7193 143.75 71.3335 143.75Z" fill="url(#paint0_linear_33329_5459)"/>
</g>
<path d="M54.1363 50.0002L48.6818 44.5457L43.2273 50.0002V35.4547H54.1363V50.0002Z" fill="#FFD8BF"/>
<path d="M68.4862 58.1022L49.2228 54.2199C47.3417 53.471 45.2116 54.3916 44.4627 56.2715C43.7159 58.1535 44.6344 60.2848 46.5155 61.0336L56.9656 66.4807L46.2977 70.6699C46.2977 70.6699 43.45 70.8312 22.8073 57.634C21.1022 56.5427 18.8348 57.0413 17.7446 58.7473C16.6533 60.4533 17.1528 62.7199 18.8579 63.81C19.9085 64.4803 42.1084 83.2379 48.3923 83.2379C54.6762 83.2379 75.6226 74.8594 75.6226 74.8594V53.913L68.4862 58.1022Z" fill="#FFD8BF"/>
<path d="M71.2386 56.4264V32.9664H52.3868H25.1565V59.2478C43.4825 70.8102 46.1029 70.6698 46.1029 70.6698L58.5368 65.8876C66.4189 58.8991 63.3261 61.175 71.2386 56.4264Z" fill="url(#paint1_linear_33329_5459)"/>
<path d="M25.1565 32.9663L30.3932 20.3986H64.9548L71.2386 32.9663H25.1565Z" fill="url(#paint2_linear_33329_5459)"/>
<path d="M84.0015 49.7238H75.623V79.0486H84.0015V49.7238Z" fill="#142246"/>
<path d="M42.1089 32.9663L44.2035 20.3986H52.582L54.6766 32.9663H42.1089Z" fill="#FFF2E8"/>
<path d="M69.7998 57.3311L68.4864 58.102L49.2242 54.2197C47.3431 53.4708 45.2118 54.3905 44.463 56.2713C43.7162 58.1533 44.6347 60.2846 46.5157 61.0334L56.9659 66.4805L46.2979 70.6697C46.2979 70.6697 43.4502 70.831 22.8087 57.6338C21.1026 56.5425 18.8352 57.0411 17.7448 58.7471C16.6546 60.4522 17.153 62.7197 18.8582 63.8098C19.7609 64.3859 36.2929 78.3257 44.9071 82.2238L69.7998 57.3311Z" fill="#FFF2E8"/>
<path d="M48.8093 54.8875C47.8974 54.5657 46.8847 54.942 46.4039 55.7821C46.1165 56.2858 46.0611 56.8893 46.2529 57.4375C46.4447 57.9848 46.8656 58.4231 47.4056 58.6358L47.8884 58.8276L49.4775 55.1231L48.8093 54.8875Z" fill="white"/>
</g>
<defs>
<linearGradient id="paint0_linear_33329_5459" x1="33.8335" y1="52.0833" x2="94.2502" y2="139.583" gradientUnits="userSpaceOnUse">
<stop stop-color="#FFD5DF"/>
<stop offset="0.0001" stop-color="#5FBFDD"/>
<stop offset="0.390625" stop-color="#3D89B5"/>
<stop offset="1" stop-color="#14528B"/>
</linearGradient>
<linearGradient id="paint1_linear_33329_5459" x1="36.4766" y1="48.3831" x2="64.0455" y2="75.3398" gradientUnits="userSpaceOnUse">
<stop stop-color="#FD773F"/>
<stop offset="1" stop-color="#DD4100"/>
</linearGradient>
<linearGradient id="paint2_linear_33329_5459" x1="36.4766" y1="25.5374" x2="42.0911" y2="42.0071" gradientUnits="userSpaceOnUse">
<stop stop-color="#FD773F"/>
<stop offset="1" stop-color="#FBA44A"/>
</linearGradient>
<clipPath id="clip0_33329_5459">
<rect x="0.5" width="100" height="100" rx="8" fill="white"/>
</clipPath>
</defs>
</svg>
