<svg width="101" height="100" viewBox="0 0 101 100" fill="none" xmlns="http://www.w3.org/2000/svg">
<g clip-path="url(#clip0_33329_5481)">
<path d="M50.5 100C78.1142 100 100.5 77.6142 100.5 50C100.5 22.3858 78.1142 0 50.5 0C22.8858 0 0.5 22.3858 0.5 50C0.5 77.6142 22.8858 100 50.5 100Z" fill="#BDE6F2"/>
<mask id="mask0_33329_5481" style="mask-type:alpha" maskUnits="userSpaceOnUse" x="0" y="0" width="101" height="100">
<path d="M50.5 100C78.1142 100 100.5 77.6142 100.5 50C100.5 22.3858 78.1142 0 50.5 0C22.8858 0 0.5 22.3858 0.5 50C0.5 77.6142 22.8858 100 50.5 100Z" fill="#C1C7CD"/>
</mask>
<g mask="url(#mask0_33329_5481)">
<path d="M71.3333 143.75C98.9475 143.75 121.333 121.364 121.333 93.75C121.333 66.1358 98.9475 43.75 71.3333 43.75C43.719 43.75 21.3333 66.1358 21.3333 93.75C21.3333 121.364 43.719 143.75 71.3333 143.75Z" fill="url(#paint0_linear_33329_5481)"/>
</g>
</g>
<g clip-path="url(#clip1_33329_5481)">
<path d="M76.2476 36.98H61.1584V64.3283H85.8808V52.0189L82.9975 42.0538C82.1283 39.0488 79.3759 36.98 76.2476 36.98Z" fill="#435A96"/>
<path d="M82.2728 51.8938L79.7032 43.0111C79.2602 41.4842 77.8399 40.4155 76.249 40.4155H64.5942V51.8938H82.2728Z" fill="#84DBFF"/>
<path d="M82.2758 51.888H64.5881V40.4098L82.2758 51.888Z" fill="#F1F8FF"/>
<path d="M82.2728 51.8938L79.7032 43.0111C79.2602 41.4842 77.8399 40.4155 76.249 40.4155H64.5942L82.2728 51.8938Z" fill="white"/>
<path d="M18.5288 23.251H56.5926C59.1135 23.251 61.1595 25.2954 61.1595 27.8179V64.3274H13.9619V27.8179C13.9619 25.2955 16.0063 23.251 18.5288 23.251Z" fill="url(#paint1_linear_33329_5481)"/>
<path d="M87.0396 64.3277V69.4883H13.9688V64.3277H21.5955C23.3766 61.1308 26.8018 58.9691 30.7294 58.9691C34.6416 58.9691 38.0668 61.1308 39.8632 64.3277H64.4029C66.184 61.1308 69.5925 58.9691 73.52 58.9691C77.4476 58.9691 80.8575 61.1308 82.6539 64.3277H87.0396Z" fill="#142246"/>
<path d="M80.8135 69.4557C80.8135 73.4838 77.5481 76.7491 73.5201 76.7491C69.4921 76.7491 66.2297 73.4838 66.2297 69.4557C66.2297 65.4277 69.4935 62.1624 73.5201 62.1624C77.5497 62.1624 80.8135 65.4277 80.8135 69.4557Z" fill="#121619"/>
<path d="M76.451 69.4546C76.451 71.0729 75.1387 72.3836 73.5221 72.3836C71.9038 72.3836 70.5901 71.0729 70.5901 69.4546C70.5901 67.8363 71.9024 66.5256 73.5221 66.5256C75.1387 66.5242 76.451 67.8365 76.451 69.4546Z" fill="#435A96"/>
<path d="M38.0155 69.4557C38.0155 73.4838 34.7485 76.7491 30.7221 76.7491C26.6941 76.7491 23.4287 73.4838 23.4287 69.4557C23.4287 65.4277 26.6941 62.1624 30.7221 62.1624C34.7485 62.1624 38.0155 65.4277 38.0155 69.4557Z" fill="#121619"/>
<path d="M33.6523 69.4546C33.6523 71.0729 32.3416 72.3836 30.7234 72.3836C29.1051 72.3836 27.793 71.0729 27.793 69.4546C27.793 67.8363 29.1052 66.5256 30.7234 66.5256C32.3415 66.5256 33.6523 67.8365 33.6523 69.4546Z" fill="#435A96"/>
</g>
<mask id="mask1_33329_5481" style="mask-type:alpha" maskUnits="userSpaceOnUse" x="13" y="23" width="49" height="42">
<path d="M18.5291 23.2509H56.5928C59.1138 23.2509 61.1597 25.2953 61.1597 27.8178V64.3273H13.9622V27.8178C13.9622 25.2954 16.0066 23.2509 18.5291 23.2509Z" fill="url(#paint2_linear_33329_5481)"/>
</mask>
<g mask="url(#mask1_33329_5481)">
<path opacity="0.8" d="M42.7228 53.9009L36.1021 35.8058C34.9987 32.7956 32.1253 30.7015 28.9046 30.7711C26.1348 30.8296 23.589 32.2971 22.1551 34.6585L21.1805 36.3266H21.1777L20.9564 36.7081H15.6941C14.9603 36.7081 14.3638 37.3012 14.3638 38.0308C14.3638 38.7604 14.9603 39.3536 15.6941 39.3536H19.4133L19.4105 39.3591H19.9734C20.7604 39.3591 21.3961 39.9913 21.3961 40.7738C21.3961 41.5563 20.7604 42.1884 19.9734 42.1884H17.7609L17.7581 42.1912H7.60031C6.86655 42.1884 6.27002 42.7787 6.27002 43.5083C6.27002 44.2379 6.86655 44.8311 7.60031 44.8311H16.2402L14.7279 47.432H14.7055L14.557 47.6882H10.6894C9.95563 47.6882 9.3591 48.2813 9.3591 49.0109C9.3591 49.7405 9.95563 50.3337 10.6894 50.3337H13.0419L11.0927 53.6864C10.555 54.611 11.2299 55.7694 12.3025 55.7694H19.4525C20.4495 55.7694 21.3709 55.2403 21.8722 54.3826L24.2892 50.2139H32.9963L34.5702 54.3826C34.8755 55.1902 35.6485 55.7276 36.5166 55.7332L41.4009 55.7694C42.3755 55.7722 43.0561 54.8115 42.7228 53.9009Z" fill="#FFF2EA"/>
<path d="M26.1768 44.9006C25.4234 44.9006 24.8101 44.2936 24.8101 43.5417C24.8101 42.7926 25.4206 42.1855 26.1768 42.1855C26.9329 42.1855 27.5435 42.7926 27.5435 43.5417C27.5435 44.2936 26.9301 44.9006 26.1768 44.9006Z" fill="url(#paint3_linear_33329_5481)"/>
<path d="M31.2964 44.8979C30.5402 44.8979 29.9297 44.2909 29.9297 43.5418C29.9297 42.7899 30.5402 42.1801 31.2964 42.1801C32.0498 42.1801 32.6631 42.7899 32.6631 43.5418C32.6631 44.2881 32.0498 44.8979 31.2964 44.8979Z" fill="url(#paint4_linear_33329_5481)"/>
</g>
<defs>
<linearGradient id="paint0_linear_33329_5481" x1="33.8333" y1="52.0833" x2="94.2499" y2="139.583" gradientUnits="userSpaceOnUse">
<stop stop-color="#FFD5DF"/>
<stop offset="0.0001" stop-color="#5FBFDD"/>
<stop offset="0.390625" stop-color="#3D89B5"/>
<stop offset="1" stop-color="#14528B"/>
</linearGradient>
<linearGradient id="paint1_linear_33329_5481" x1="25.556" y1="40.0469" x2="55.4926" y2="67.5654" gradientUnits="userSpaceOnUse">
<stop stop-color="#FD773F"/>
<stop offset="1" stop-color="#FBA44A"/>
</linearGradient>
<linearGradient id="paint2_linear_33329_5481" x1="25.5563" y1="40.0467" x2="55.4929" y2="67.5653" gradientUnits="userSpaceOnUse">
<stop stop-color="#FD773F"/>
<stop offset="1" stop-color="#FBA44A"/>
</linearGradient>
<linearGradient id="paint3_linear_33329_5481" x1="25.4815" y1="43.2957" x2="27.4217" y2="44.8584" gradientUnits="userSpaceOnUse">
<stop stop-color="#FD773F"/>
<stop offset="1" stop-color="#FBA44A"/>
</linearGradient>
<linearGradient id="paint4_linear_33329_5481" x1="30.6011" y1="43.2914" x2="32.5429" y2="44.8537" gradientUnits="userSpaceOnUse">
<stop stop-color="#FD773F"/>
<stop offset="1" stop-color="#FBA44A"/>
</linearGradient>
<clipPath id="clip0_33329_5481">
<rect x="0.5" width="100" height="100" rx="8" fill="white"/>
</clipPath>
<clipPath id="clip1_33329_5481">
<rect width="73.0769" height="73.0769" fill="white" transform="translate(13.9619 13.4617)"/>
</clipPath>
</defs>
</svg>
